<mxfile host="app.diagrams.net" modified="2024-08-19T06:06:26.667Z" agent="Mozilla/5.0 (Windows NT 10.0; Win64; x64) AppleWebKit/537.36 (KHTML, like Gecko) Chrome/127.0.0.0 Safari/537.36" etag="0ZQBRwx4l0nUPpqubeJC" version="24.7.3" type="device">
  <diagram name="Page-1" id="R77hHeqxqH5-LtLIkCff">
    <mxGraphModel dx="1857" dy="2240" grid="1" gridSize="10" guides="1" tooltips="1" connect="1" arrows="1" fold="1" page="1" pageScale="1" pageWidth="850" pageHeight="1100" math="0" shadow="0">
      <root>
        <mxCell id="0" />
        <mxCell id="1" parent="0" />
        <mxCell id="CuuWy0sKwwexZ0SzWDQ9-1" value="" style="sketch=0;points=[[0.015,0.015,0],[0.985,0.015,0],[0.985,0.985,0],[0.015,0.985,0],[0.25,0,0],[0.5,0,0],[0.75,0,0],[1,0.25,0],[1,0.5,0],[1,0.75,0],[0.75,1,0],[0.5,1,0],[0.25,1,0],[0,0.75,0],[0,0.5,0],[0,0.25,0]];verticalLabelPosition=bottom;html=1;verticalAlign=top;aspect=fixed;align=center;pointerEvents=1;shape=mxgraph.cisco19.cell_phone;fillColor=#005073;strokeColor=none;" vertex="1" parent="1">
          <mxGeometry x="80" y="400" width="75" height="150" as="geometry" />
        </mxCell>
        <mxCell id="CuuWy0sKwwexZ0SzWDQ9-2" value="" style="sketch=0;points=[[0.015,0.015,0],[0.985,0.015,0],[0.985,0.985,0],[0.015,0.985,0],[0.25,0,0],[0.5,0,0],[0.75,0,0],[1,0.25,0],[1,0.5,0],[1,0.75,0],[0.75,1,0],[0.5,1,0],[0.25,1,0],[0,0.75,0],[0,0.5,0],[0,0.25,0]];verticalLabelPosition=bottom;html=1;verticalAlign=top;aspect=fixed;align=center;pointerEvents=1;shape=mxgraph.cisco19.cell_phone;fillColor=#005073;strokeColor=none;" vertex="1" parent="1">
          <mxGeometry x="530" y="400" width="75" height="150" as="geometry" />
        </mxCell>
        <mxCell id="CuuWy0sKwwexZ0SzWDQ9-3" value="" style="points=[[0.13,0.02,0],[0.5,0,0],[0.87,0.02,0],[0.885,0.4,0],[0.985,0.985,0],[0.5,1,0],[0.015,0.985,0],[0.115,0.4,0]];verticalLabelPosition=bottom;sketch=0;html=1;verticalAlign=top;aspect=fixed;align=center;pointerEvents=1;shape=mxgraph.cisco19.laptop;fillColor=#005073;strokeColor=none;" vertex="1" parent="1">
          <mxGeometry x="240" y="400" width="214.28" height="150" as="geometry" />
        </mxCell>
        <mxCell id="CuuWy0sKwwexZ0SzWDQ9-4" value="" style="points=[[0.13,0.02,0],[0.5,0,0],[0.87,0.02,0],[0.885,0.4,0],[0.985,0.985,0],[0.5,1,0],[0.015,0.985,0],[0.115,0.4,0]];verticalLabelPosition=bottom;sketch=0;html=1;verticalAlign=top;aspect=fixed;align=center;pointerEvents=1;shape=mxgraph.cisco19.laptop;fillColor=#005073;strokeColor=none;" vertex="1" parent="1">
          <mxGeometry x="680" y="400" width="214.28" height="150" as="geometry" />
        </mxCell>
        <mxCell id="CuuWy0sKwwexZ0SzWDQ9-5" value="" style="endArrow=classic;startArrow=classic;html=1;rounded=0;strokeWidth=2;strokeColor=#005073;" edge="1" parent="1">
          <mxGeometry width="50" height="50" relative="1" as="geometry">
            <mxPoint x="120" y="580" as="sourcePoint" />
            <mxPoint x="800" y="580" as="targetPoint" />
            <Array as="points">
              <mxPoint x="120" y="620" />
              <mxPoint x="460" y="620" />
              <mxPoint x="800" y="620" />
            </Array>
          </mxGeometry>
        </mxCell>
        <mxCell id="CuuWy0sKwwexZ0SzWDQ9-6" value="&lt;b&gt;&lt;font color=&quot;#005073&quot; style=&quot;font-size: 30px;&quot;&gt;Clients&lt;/font&gt;&lt;/b&gt;" style="text;html=1;align=center;verticalAlign=middle;whiteSpace=wrap;rounded=0;" vertex="1" parent="1">
          <mxGeometry x="395" y="650" width="135" height="40" as="geometry" />
        </mxCell>
        <mxCell id="CuuWy0sKwwexZ0SzWDQ9-10" value="" style="verticalLabelPosition=bottom;html=1;verticalAlign=top;align=center;strokeColor=none;fillColor=#005073;shape=mxgraph.azure.server_rack;" vertex="1" parent="1">
          <mxGeometry x="380" y="-50" width="160" height="160" as="geometry" />
        </mxCell>
        <mxCell id="CuuWy0sKwwexZ0SzWDQ9-11" value="" style="sketch=0;outlineConnect=0;fontColor=#232F3E;gradientColor=none;fillColor=#005073;strokeColor=none;dashed=0;verticalLabelPosition=bottom;verticalAlign=top;align=center;html=1;fontSize=12;fontStyle=0;aspect=fixed;pointerEvents=1;shape=mxgraph.aws4.sagemaker_model;" vertex="1" parent="1">
          <mxGeometry x="87.5" y="320" width="60" height="60" as="geometry" />
        </mxCell>
        <mxCell id="CuuWy0sKwwexZ0SzWDQ9-12" value="" style="sketch=0;outlineConnect=0;fontColor=#232F3E;gradientColor=none;fillColor=#005073;strokeColor=none;dashed=0;verticalLabelPosition=bottom;verticalAlign=top;align=center;html=1;fontSize=12;fontStyle=0;aspect=fixed;pointerEvents=1;shape=mxgraph.aws4.sagemaker_model;" vertex="1" parent="1">
          <mxGeometry x="320" y="320" width="60" height="60" as="geometry" />
        </mxCell>
        <mxCell id="CuuWy0sKwwexZ0SzWDQ9-13" value="" style="sketch=0;outlineConnect=0;fontColor=#232F3E;gradientColor=none;fillColor=#005073;strokeColor=none;dashed=0;verticalLabelPosition=bottom;verticalAlign=top;align=center;html=1;fontSize=12;fontStyle=0;aspect=fixed;pointerEvents=1;shape=mxgraph.aws4.sagemaker_model;" vertex="1" parent="1">
          <mxGeometry x="537.5" y="320" width="60" height="60" as="geometry" />
        </mxCell>
        <mxCell id="CuuWy0sKwwexZ0SzWDQ9-14" value="" style="sketch=0;outlineConnect=0;fontColor=#232F3E;gradientColor=none;fillColor=#005073;strokeColor=none;dashed=0;verticalLabelPosition=bottom;verticalAlign=top;align=center;html=1;fontSize=12;fontStyle=0;aspect=fixed;pointerEvents=1;shape=mxgraph.aws4.sagemaker_model;" vertex="1" parent="1">
          <mxGeometry x="757.14" y="320" width="60" height="60" as="geometry" />
        </mxCell>
        <mxCell id="CuuWy0sKwwexZ0SzWDQ9-15" value="" style="endArrow=block;dashed=1;html=1;dashPattern=1 3;strokeWidth=3;rounded=0;startArrow=block;startFill=0;endFill=0;strokeColor=#005073;exitX=0.878;exitY=0;exitDx=0;exitDy=0;exitPerimeter=0;entryX=0.01;entryY=0.99;entryDx=0;entryDy=0;entryPerimeter=0;" edge="1" parent="1" source="CuuWy0sKwwexZ0SzWDQ9-11" target="CuuWy0sKwwexZ0SzWDQ9-10">
          <mxGeometry width="50" height="50" relative="1" as="geometry">
            <mxPoint x="190" y="250" as="sourcePoint" />
            <mxPoint x="350" y="130" as="targetPoint" />
          </mxGeometry>
        </mxCell>
        <mxCell id="CuuWy0sKwwexZ0SzWDQ9-16" value="" style="endArrow=block;dashed=1;html=1;dashPattern=1 3;strokeWidth=3;rounded=0;startArrow=block;startFill=0;endFill=0;strokeColor=#005073;entryX=0.5;entryY=1;entryDx=0;entryDy=0;entryPerimeter=0;" edge="1" parent="1" source="CuuWy0sKwwexZ0SzWDQ9-12" target="CuuWy0sKwwexZ0SzWDQ9-10">
          <mxGeometry width="50" height="50" relative="1" as="geometry">
            <mxPoint x="380" y="312" as="sourcePoint" />
            <mxPoint x="622" y="100" as="targetPoint" />
          </mxGeometry>
        </mxCell>
        <mxCell id="CuuWy0sKwwexZ0SzWDQ9-17" value="" style="endArrow=block;dashed=1;html=1;dashPattern=1 3;strokeWidth=3;rounded=0;startArrow=block;startFill=0;endFill=0;strokeColor=#005073;entryX=0.5;entryY=1;entryDx=0;entryDy=0;entryPerimeter=0;" edge="1" parent="1" source="CuuWy0sKwwexZ0SzWDQ9-13" target="CuuWy0sKwwexZ0SzWDQ9-10">
          <mxGeometry width="50" height="50" relative="1" as="geometry">
            <mxPoint x="590" y="322" as="sourcePoint" />
            <mxPoint x="832" y="110" as="targetPoint" />
          </mxGeometry>
        </mxCell>
        <mxCell id="CuuWy0sKwwexZ0SzWDQ9-18" value="" style="endArrow=block;dashed=1;html=1;dashPattern=1 3;strokeWidth=3;rounded=0;startArrow=block;startFill=0;endFill=0;strokeColor=#005073;entryX=0.99;entryY=0.99;entryDx=0;entryDy=0;entryPerimeter=0;" edge="1" parent="1" source="CuuWy0sKwwexZ0SzWDQ9-14" target="CuuWy0sKwwexZ0SzWDQ9-10">
          <mxGeometry width="50" height="50" relative="1" as="geometry">
            <mxPoint x="670" y="312" as="sourcePoint" />
            <mxPoint x="912" y="100" as="targetPoint" />
          </mxGeometry>
        </mxCell>
      </root>
    </mxGraphModel>
  </diagram>
</mxfile>
